<?xml version="1.0" standalone="no"?>
<!DOCTYPE svg PUBLIC "-//W3C//DTD SVG 20010904//EN"
 "http://www.w3.org/TR/2001/REC-SVG-20010904/DTD/svg10.dtd">
<svg version="1.0" xmlns="http://www.w3.org/2000/svg"
 width="512.000000pt" height="512.000000pt" viewBox="0 0 512.000000 512.000000"
 preserveAspectRatio="xMidYMid meet">
<metadata>
Created by potrace 1.11, written by Peter Selinger 2001-2013
</metadata>
<g transform="translate(0.000000,512.000000) scale(0.100000,-0.100000)"
fill="#000000" stroke="none">
<path d="M2469 3659 c-484 -25 -922 -124 -1258 -285 -471 -225 -710 -548 -647
-874 63 -330 384 -608 914 -791 63 -21 117 -39 121 -39 3 0 -53 31 -126 69
-312 161 -516 335 -612 522 -49 97 -65 170 -59 279 18 308 356 644 845 839
391 156 941 247 1513 252 141 1 155 3 95 10 -94 11 -472 29 -565 27 -41 0
-141 -4 -221 -9z"/>
<path d="M2850 3549 c-504 -41 -888 -140 -1275 -329 -305 -148 -502 -315 -587
-496 -65 -139 -71 -271 -19 -420 24 -71 96 -202 106 -193 2 3 -3 31 -11 64
-20 83 -20 235 1 315 83 321 438 602 990 785 176 58 517 119 885 157 195 20
796 17 985 -5 342 -41 520 -83 890 -211 11 -4 -15 11 -57 33 -287 151 -726
264 -1163 301 -141 12 -595 11 -745 -1z"/>
<path d="M598 3107 c-228 -137 -366 -278 -437 -447 -17 -39 -25 -82 -29 -147
-8 -167 47 -285 203 -430 313 -293 776 -486 1388 -578 154 -23 419 -45 532
-44 l100 1 -65 9 c-246 32 -324 44 -477 74 -732 145 -1234 417 -1401 760 -45
91 -56 140 -55 250 0 86 5 112 31 183 42 113 126 236 235 343 49 49 88 89 85
89 -3 0 -53 -28 -110 -63z"/>
<path d="M3758 2994 c-47 -25 -34 -63 13 -39 64 34 133 10 144 -49 10 -51 -16
-97 -109 -194 -47 -49 -86 -96 -86 -106 0 -14 16 -16 130 -16 123 0 130 1 130
20 0 19 -7 20 -90 20 -49 0 -90 3 -90 7 0 3 29 36 64 72 82 86 110 139 103
200 -8 68 -49 101 -125 101 -31 -1 -69 -8 -84 -16z"/>
<path d="M2776 2648 c-61 -128 -143 -299 -181 -380 -38 -81 -71 -145 -74 -142
-3 3 -85 170 -182 372 -138 285 -181 367 -196 367 -16 0 -25 -47 -90 -475 -40
-261 -72 -481 -72 -487 -1 -9 15 -13 49 -13 50 0 50 0 50 33 -1 56 74 607 81
600 3 -5 25 -51 49 -103 66 -150 262 -520 275 -520 7 0 27 33 45 73 19 39 92
191 163 337 l128 264 47 -81 c26 -45 50 -84 53 -88 4 -3 14 32 22 78 15 78 15
93 -4 218 -23 164 -27 179 -40 179 -6 0 -61 -105 -123 -232z"/>
<path d="M3274 2850 c-117 -16 -220 -57 -287 -112 -26 -22 -27 -26 -21 -86 l7
-62 63 60 c35 34 88 73 121 88 55 26 65 27 213 27 126 0 162 -3 194 -18 22 -9
41 -15 43 -13 3 2 9 24 14 47 7 30 7 44 -2 49 -28 18 -265 31 -345 20z"/>
<path d="M2826 2468 c-12 -45 -6 -194 10 -249 37 -123 97 -205 198 -271 113
-73 293 -107 480 -89 54 5 100 12 103 15 3 2 0 21 -7 41 -9 28 -16 35 -29 29
-9 -3 -63 -9 -121 -11 -165 -8 -290 33 -395 128 -60 56 -113 150 -122 218 -3
24 -27 75 -58 126 -45 75 -53 83 -59 63z"/>
<path d="M2891 2004 c4 -33 8 -69 8 -81 1 -22 5 -23 69 -23 l67 0 -56 53 c-30
28 -64 65 -75 81 l-20 28 7 -58z"/>
</g>
</svg>
